<?xml version="1.0" encoding="UTF-8" standalone="no"?>
<!DOCTYPE svg PUBLIC "-//W3C//DTD SVG 1.1//EN" "http://www.w3.org/Graphics/SVG/1.1/DTD/svg11.dtd">
<svg width="100%" height="100%" viewBox="0 0 1240 288" version="1.1" xmlns="http://www.w3.org/2000/svg" xmlns:xlink="http://www.w3.org/1999/xlink" xml:space="preserve" xmlns:serif="http://www.serif.com/" style="fill-rule:evenodd;clip-rule:evenodd;stroke-miterlimit:3.86371;">
    <g id="path3033" transform="matrix(0.125,0,0,-0.125,-0.359375,424.189)">
        <path d="M7620.05,2242.23C7620.05,2878.07 8135.5,3393.51 8771.35,3393.51C9407.21,3393.51 9922.66,2878.07 9922.66,2242.23C9922.66,1606.38 9407.21,1090.94 8771.35,1090.94C8135.5,1090.94 7620.05,1606.38 7620.05,2242.23" style="fill:#94bc38;fill-rule:nonzero;"/>
    </g>
    <g id="path3035" transform="matrix(0.125,0,0,-0.125,-0.359375,424.189)">
        <path d="M8770.83,2601.59L9376.6,2799.21L9376.6,1765.75L8770.71,1569.66L8166.1,1765.41L8166.1,2798.86L8374.59,2718.61" style="fill:none;stroke:white;stroke-width:43.57px;"/>
    </g>
    <g id="path3037" transform="matrix(0.125,0,0,-0.125,-0.359375,424.189)">
        <path d="M8374.33,2914.8L8770.71,2601.24L8770.71,1592.99L8374.33,1843.6L8374.33,2914.8Z" style="fill:none;stroke:white;stroke-width:43.57px;"/>
    </g>
    <g id="path3039" transform="matrix(0.125,0,0,-0.125,-0.359375,424.189)">
        <path d="M2541.49,2242.23C2541.49,2878.07 3056.94,3393.51 3692.8,3393.51C4328.66,3393.51 4844.11,2878.07 4844.11,2242.23C4844.11,1606.38 4328.66,1090.94 3692.8,1090.94C3056.94,1090.94 2541.49,1606.38 2541.49,2242.23" style="fill:#002d40;fill-rule:nonzero;"/>
    </g>
    <g id="path3041" transform="matrix(0.125,0,0,-0.125,-0.359375,424.189)">
        <path d="M3529.45,2350.61C3529.45,2535.02 3573.38,2640.39 3687.52,2642.18C3791.16,2643.91 3863.17,2542.04 3863.17,2352.38C3863.17,2146.88 3808.71,2048.52 3671.73,2048.52C3597.95,2048.52 3529.45,2138.08 3529.45,2350.61ZM3345.03,1554.96C3397.72,1535.64 3511.89,1498.76 3655.92,1498.76C3987.88,1498.76 4073.94,1700.75 4073.94,1983.53L4073.94,2650.96C4073.94,2698.37 4077.45,2745.8 4080.95,2793.21L3884.24,2793.21C3882.5,2745.8 3877.21,2700.14 3877.21,2652.7L3870.2,2652.7C3824.53,2731.74 3763.05,2807.26 3631.32,2807.26C3394.22,2807.26 3304.64,2587.71 3304.64,2338.3C3304.64,1972.99 3494.32,1888.68 3620.79,1888.68C3763.05,1888.68 3824.53,1971.23 3859.66,2041.49L3863.17,2041.49L3863.17,1955.41C3863.17,1813.16 3829.8,1670.9 3624.3,1670.9C3510.13,1670.9 3408.25,1720.07 3357.34,1748.17L3345.03,1554.96" style="fill:white;"/>
    </g>
    <g id="path3043" transform="matrix(0.125,0,0,-0.125,-0.359375,424.189)">
        <path d="M5080.55,2242.23C5080.55,2878.07 5596,3393.51 6231.86,3393.51C6867.72,3393.51 7383.17,2878.07 7383.17,2242.23C7383.17,1606.38 6867.72,1090.94 6231.86,1090.94C5596,1090.94 5080.55,1606.38 5080.55,2242.23" style="fill:#002d40;fill-rule:nonzero;"/>
    </g>
    <g id="path3045" transform="matrix(0.125,0,0,-0.125,-0.359375,424.189)">
        <path d="M6110.57,1600.11L5846.55,2792.88L6059.67,2792.88L6236.75,1807.36L6418.5,2792.88L6630.01,2792.88L6378.21,1600.11L6110.57,1600.11" style="fill:white;fill-rule:nonzero;"/>
    </g>
    <g id="path3047" transform="matrix(0.125,0,0,-0.125,-0.359375,424.189)">
        <path d="M2.875,2242.23C2.875,2878.07 518.324,3393.51 1154.18,3393.51C1790.04,3393.51 2305.49,2878.07 2305.49,2242.23C2305.49,1606.38 1790.04,1090.94 1154.18,1090.94C518.324,1090.94 2.875,1606.38 2.875,2242.23" style="fill:#002d40;fill-rule:nonzero;"/>
    </g>
    <g id="path3049" transform="matrix(0.125,0,0,-0.125,-0.359375,424.189)">
        <path d="M815.863,3114.95C889.281,3145.27 983.168,3157.82 1033.64,3162.65L1033.65,2662.89C1077.58,2719.09 1128.49,2792.85 1263.76,2792.85C1469.24,2792.85 1530.73,2640.05 1530.73,2457.39L1530.73,1611.06L1312.94,1611.06L1312.94,2417C1312.94,2555.75 1277.81,2613.72 1188.24,2613.72C1074.07,2613.72 1033.65,2517.1 1033.65,2401.19L1033.65,1611.06L815.863,1611.06L815.863,3114.95" style="fill:white;fill-rule:nonzero;"/>
    </g>
</svg>
